<svg id="Layer_1" data-name="Layer 1" xmlns="http://www.w3.org/2000/svg" xmlns:xlink="http://www.w3.org/1999/xlink"
  viewBox="0 0 506.25 297.14">
  <defs>
    <style>
      .cls-1 {
        fill: #8b8d8e;
      }

      .cls-2 {
        fill: url(#radial-gradient);
      }
    </style>
    <radialGradient id="radial-gradient" cx="368.04" cy="116.21" r="410.68" gradientUnits="userSpaceOnUse">
      <stop offset="0.25" stop-color="#004164" />
      <stop offset="0.5" stop-color="#0098db" />
      <stop offset="1" stop-color="#61c250" />
    </radialGradient>
  </defs>
  <title>DHI_Logo_Pos_RGB</title>
  <path class="cls-1"
    d="M258.73,313.42H186.8V422.88a15.68,15.68,0,0,0,15.63,15.64h56.3a62.55,62.55,0,0,0,0-125.1Zm-6.26,93.82H228.24a3.87,3.87,0,0,1-3.91-3.91V344.69h28.14a31.28,31.28,0,1,1,0,62.55Z"
    transform="translate(-186.8 -141.38)" />
  <path class="cls-1"
    d="M427.61,360.33h-50V313.42H340V422.88a15.69,15.69,0,0,0,15.64,15.64h21.89V400.36a7.74,7.74,0,0,0-7.82-7.82.47.47,0,0,1,0-.94h57.86v31.28a15.69,15.69,0,0,0,15.64,15.64h21.89V313.42H427.61Z"
    transform="translate(-186.8 -141.38)" />
  <path class="cls-1" d="M493.29,313.42V422.88a15.68,15.68,0,0,0,15.63,15.64h21.9V313.42Z"
    transform="translate(-186.8 -141.38)" />
  <path class="cls-2"
    d="M489.42,141.38c-44.75,0-89.44,17.46-91.27,24.15-.38,1.39,1.6,2.57,4.65,2.57,8.65,0,27.56-10.95,69.08-10.95,19.54,0,39.9,3.39,39.9,8.54,0,4.5-14.43,7.56-14.43,13.21,0,2.72,3.85,5,14.59,5,36.7,0,85.27,14.17,85.27,29a3.09,3.09,0,0,1-3.21,3.38c-7.21,0-30.94-13.05-74-13.05-78.85,0-125.81,53.13-125.81,71.64,0,4.68,2.89,7.58,7.21,7.58,15.18,0,25.31-15.7,58.44-15.7,25.33,0,32.47,9.74,48.34,9.74,6.76,0,13.74-2.57,13.74-8.54,0-9.17-11.37-15-30.28-19.31-16-3.71-25-6.28-25-12.4,0-11.12,25.79-20.28,52.56-20.28,89.75,0,128.38,61.33,133.83,61.33,1.27,0,1.92-1,1.92-3.38,0-18-21-52.64-43.6-71.64-33.66-28.17-59.29-34.29-59.29-38,0-.81,1.12-1.13,2.24-1.13,7.77,0,40.17,13.78,66.83,37.67,36.83,33,57.43,84.49,57.43,125.3,0,8.16-.91,12.95-3.93,12.95-5.93,0-13.43-30.12-38.91-59.84-21.45-25-57.54-49.59-91-49.59-8.34,0-13.78,1.45-13.78,6.44,0,13.78,48.88,26.44,48.88,75.69v.15c-.22,4.44-.26,7.79-1.28,11.26-4,13.73,8.07,29.83,15.72,28.33,13.75-2.69,11.32-41.68,11.55-36.93l0-.56c-1.3-15.17-4.83-20.53-4.83-28.52,0-5.47,2.25-8,5.62-8,5.29,0,18,8.22,32,28.34s24.53,50.07,24.53,82.9c0,22.23,1.15,34.23,6.43,34.23,9.29,0,23.53-35.92,23.53-76.54C693,232.94,603.38,141.38,489.42,141.38Z"
    transform="translate(-186.8 -141.38)" />
</svg>