<svg xmlns="http://www.w3.org/2000/svg" xmlns:xlink="http://www.w3.org/1999/xlink" fill="none" version="1.1" width="30"
  height="34.54121780395508" viewBox="0 0 30 34.54121780395508">
  <g>
    <g>
      <g>
        <g>
          <g>
            <path
              d="M23.2676,27.5123C23.3025,27.4948,23.3373,27.4774,23.3548,27.4425L25.9361,25.2449C28.4477,22.5589,30,18.9659,30,15.0067C30,6.42549,22.7967,-0.463907,14.1108,0.0244551C6.26209,0.477935,0.0529133,7.03595,0.00058876,14.8846C-0.0342943,18.8613,1.48312,22.4542,3.95981,25.1577L6.69813,27.4774C6.71557,27.4948,6.73301,27.4948,6.73301,27.5123L15.0003,34.5412L23.2676,27.5123Z"
              fill="#FC9256" fill-opacity="1" />
          </g>
          <g>
            <path
              d="M2.37109375,15.00660625C2.37109375,19.51800625,4.77791375,23.68670625,8.68492375,25.94240625C12.59189375,28.19810625,17.40559375,28.19810625,21.31259375,25.94240625C25.21959375,23.68670625,27.62639375,19.51800625,27.62639375,15.00660625C27.62639375,8.03250625,21.97279375,2.37890625,14.99879375,2.37890625C8.02469375,2.37890625,2.37109375,8.03250625,2.37109375,15.00660625Z"
              fill="#FFFFFF" fill-opacity="1" />
          </g>
        </g>
      </g>
    </g>
    <g>
      <g>
        <path
          d="M8.141851710033253,14.463512301502393C7.510414710033252,14.461682588702393,6.998029530033252,14.931337638702393,7.000027423203252,15.510117638702393L7.000027423203252,21.962167638702393C7.024728310033252,22.527047638702392,7.5343757100332525,22.971857638702392,8.151121710033252,22.966817638702395C8.767871710033251,22.96176763870239,9.268781710033252,22.508697638702394,9.282481710033252,21.943497638702393L9.282481710033252,15.510117638702393C9.286491710033252,14.931007638702393,8.773651710033253,14.460443578702392,8.141851710033253,14.463512301502393Z"
          fill="#FC9256" fill-opacity="1" />
      </g>
      <g>
        <path
          d="M16.71453,9.66648L21.5514,9.66648C22.3519,9.66648,23.0006,9.07136,23,8.33763C23.006,7.6005009999999995,22.3557,6.999999476327,21.5514,7L8.44618,7C7.645226,7.00121021,6.99737309,7.597989,7.0000245666,8.33214C6.99537062,9.06826,7.645469,9.6671,8.44857,9.66648L13.28426,9.66648L13.28426,11.29075C13.28379,11.394770000000001,13.29503,11.49855,13.31781,11.60045C11.90385,12.19989,10.998899999999999,13.497910000000001,10.999410000000001,14.92586L10.999410000000001,17.6604L9.28727,17.6604L9.28727,20.3247L11.153970000000001,20.3247C11.64247,21.9012,13.21322,22.989,15.00119,22.989C16.789160000000003,22.989,18.3599,21.9012,18.848399999999998,20.3247L20.7091,20.3247L20.7091,17.6604L19.0018,17.6604L19.0018,14.92586C19.002499999999998,13.498940000000001,18.0972,12.202110000000001,16.68337,11.60484C16.70439,11.50274,16.71482,11.399049999999999,16.71453,11.29514L16.71453,9.66648Z"
          fill="#FC9256" fill-opacity="1" />
      </g>
      <g>
        <path
          d="M20.71510947675293,20.328013581085205L20.70911979675293,20.328013581085205L20.70911979675293,21.957773581085206C20.71209749675293,22.536103581085207,21.22599179675293,23.002713581085203,21.85693979675293,22.999983581085203C22.487879796752928,22.997263581085207,22.99694979675293,22.526213581085205,22.99396979675293,21.947893581085204L22.99396979675293,15.510113581085205C22.99396979675293,14.931789581085205,22.48248979675293,14.462963581085205,21.85154979675293,14.462963581085205C21.22060179675293,14.462963581085205,20.70912208202293,14.931788581085206,20.70911979675293,15.510113581085205L20.70911979675293,17.660433581085204L20.71510947675293,17.660433581085204L20.71510947675293,20.328013581085205Z"
          fill="#FC9256" fill-opacity="1" />
      </g>
    </g>
  </g>
</svg>