<svg xmlns="http://www.w3.org/2000/svg" xmlns:xlink="http://www.w3.org/1999/xlink" fill="none" version="1.1" width="30"
  height="34.54121398925781" viewBox="0 0 30 34.54121398925781">
  <defs>
    <clipPath id="master_svg0_2346_24828">
      <rect x="5" y="4" width="21" height="21" rx="0" />
    </clipPath>
  </defs>
  <g>
    <g>
      <g>
        <g>
          <g>
            <g>
              <path
                d="M23.2676,27.5123C23.3025,27.4948,23.3373,27.4774,23.3548,27.4425L25.9361,25.2449C28.4477,22.5589,30,18.9659,30,15.0067C30,6.42549,22.7967,-0.463907,14.1108,0.0244551C6.26209,0.477935,0.0529133,7.03595,0.00058876,14.8846C-0.0342943,18.8613,1.48312,22.4542,3.95981,25.1577L6.69813,27.4774C6.71557,27.4948,6.73301,27.4948,6.73301,27.5123L15.0003,34.5412L23.2676,27.5123Z"
                fill="#50C3AF" fill-opacity="1" />
            </g>
            <g>
              <path
                d="M2.37109375,15.00660625C2.37109375,19.51800625,4.77791375,23.68670625,8.68492375,25.94240625C12.59189375,28.19810625,17.40559375,28.19810625,21.31259375,25.94240625C25.21959375,23.68670625,27.62639375,19.51800625,27.62639375,15.00660625C27.62639375,8.03250625,21.97279375,2.37890625,14.99879375,2.37890625C8.02469375,2.37890625,2.37109375,8.03250625,2.37109375,15.00660625Z"
                fill="#FFFFFF" fill-opacity="1" />
            </g>
          </g>
        </g>
      </g>
    </g>
    <g clip-path="url(#master_svg0_2346_24828)">
      <g>
        <path
          d="M10.968379,13.058250000000001L19.1067,13.058250000000001C19.6598,12.94033,20.0751,12.44999,20.0751,11.86162L20.0751,9.22432C20.0751,8.548174,19.52691,8,18.85076,8L11.22432,8C10.548174,8,10,8.548174,10,9.22432L10,11.86183C10,12.44999,10.415283,12.94054,10.968379,13.058250000000001ZM21.233800000000002,15.12072L19.654870000000003,15.12072C19.477690000000003,15.12072,19.334130000000002,15.26428,19.334130000000002,15.441469999999999L19.334130000000002,16.16703L18.34996,16.16703L18.34996,13.660160000000001L11.72512,13.660160000000001L11.72512,23.3876C11.72512,23.742,12.01243,24.0291,12.3666,24.0291L17.70807,24.0291C18.062440000000002,24.0291,18.34955,23.741799999999998,18.34955,23.3876L18.34955,18.5952L19.33372,18.5952L19.33372,19.3209C19.33372,19.4981,19.47728,19.6417,19.65446,19.6417L21.2334,19.6417C21.4105,19.6417,21.5541,19.4981,21.5541,19.3209L21.5541,15.441469999999999C21.5545,15.26428,21.410800000000002,15.12072,21.233800000000002,15.12072Z"
          fill="#50C3AF" fill-opacity="1" />
      </g>
    </g>
  </g>
</svg>