<svg width="31" height="36" viewBox="0 0 31 36" fill="none" xmlns="http://www.w3.org/2000/svg">
  <g clip-path="url(#clip0_2749_60450)">
    <g clip-path="url(#clip1_2749_60450)">
      <path
        d="M24.0431 28.6743C24.0792 28.656 24.1153 28.6379 24.1333 28.6015L26.8006 26.3111C29.3959 23.5116 31 19.767 31 15.6405C31 6.69686 23.5565 -0.483499 14.5812 0.0254879C6.47083 0.498119 0.0546771 7.3331 0.000608388 15.5133C-0.0354375 19.6579 1.53255 23.4026 4.0918 26.2202L6.92141 28.6379C6.93942 28.656 6.95745 28.656 6.95745 28.6743L15.5002 36L24.0431 28.6743Z"
        fill="#EA0000" />
      <path
        d="M2.06836 15.6333C2.06836 20.4739 4.62874 24.9469 8.78503 27.3671C12.9413 29.7874 18.0621 29.7874 22.2184 27.3671C26.3746 24.9469 28.9351 20.4739 28.9351 15.6333C28.9351 8.15039 22.9207 2.08429 15.5017 2.08429C8.08267 2.08429 2.06836 8.15039 2.06836 15.6333Z"
        fill="white" />
      <path
        d="M25.2398 19.5244L17.6132 6.86221C16.6843 5.19998 15.1687 5.19998 14.2398 6.86221L6.61316 19.5244C5.68427 21.1867 6.4665 22.5067 8.32427 22.5067H23.5776C25.3865 22.5067 26.1687 21.1378 25.2398 19.5244ZM15.2176 10.6755C15.2176 10.2844 15.5598 9.94221 15.9509 9.94221C16.3421 9.94221 16.6843 10.2844 16.6843 10.6755V15.8089C16.6843 16.2 16.3421 16.5422 15.9509 16.5422C15.5598 16.5422 15.2176 16.2 15.2176 15.8089V10.6755ZM15.9021 19.6711C15.3154 19.6711 14.8754 19.1822 14.8754 18.6444C14.8754 18.1067 15.3643 17.6178 15.9021 17.6178C16.4398 17.6178 16.9287 18.1067 16.9287 18.6444C16.9287 19.1822 16.4887 19.6711 15.9021 19.6711Z"
        fill="#FE8383" />
    </g>
  </g>
  <defs>
    <clipPath id="clip0_2749_60450">
      <rect width="31" height="31" rx="15.5" fill="white" />
    </clipPath>
    <clipPath id="clip1_2749_60450">
      <rect width="31" height="36" fill="white" />
    </clipPath>
  </defs>
</svg>