<svg xmlns="http://www.w3.org/2000/svg" xmlns:xlink="http://www.w3.org/1999/xlink" fill="none" version="1.1" width="30"
  height="34.54119873046875" viewBox="0 0 30 34.54119873046875">
  <g>
    <g>
      <g>
        <g>
          <g>
            <path
              d="M23.2676,27.5123C23.3025,27.4948,23.3373,27.4774,23.3548,27.4425L25.9361,25.2449C28.4477,22.5589,30,18.9659,30,15.0067C30,6.42549,22.7967,-0.463907,14.1108,0.0244551C6.26209,0.477935,0.0529133,7.03595,0.00058876,14.8846C-0.0342943,18.8613,1.48312,22.4542,3.95981,25.1577L6.69813,27.4774C6.71557,27.4948,6.73301,27.4948,6.73301,27.5123L15.0003,34.5412L23.2676,27.5123Z"
              fill="#FC9256" fill-opacity="1" />
          </g>
          <g>
            <path
              d="M2.37109375,15.00660625C2.37109375,19.51800625,4.77791375,23.68670625,8.68492375,25.94240625C12.59189375,28.19810625,17.40559375,28.19810625,21.31259375,25.94240625C25.21959375,23.68670625,27.62639375,19.51800625,27.62639375,15.00660625C27.62639375,8.03250625,21.97279375,2.37890625,14.99879375,2.37890625C8.02469375,2.37890625,2.37109375,8.03250625,2.37109375,15.00660625Z"
              fill="#FFFFFF" fill-opacity="1" />
          </g>
        </g>
      </g>
    </g>
    <g transform="matrix(0,1,-1,0,30,-18)">
      <path d="M31,6.000000000000001L37.062200000000004,17.25L24.937822,17.25L31,6.000000000000001Z" fill="#FC9256"
        fill-opacity="1" />
    </g>
    <g>
      <rect x="11" y="6" width="2" height="18" rx="1" fill="#FC9256" fill-opacity="1" />
    </g>
  </g>
</svg>