<svg xmlns="http://www.w3.org/2000/svg" xmlns:xlink="http://www.w3.org/1999/xlink" fill="none" version="1.1" width="30"
  height="34.541259765625" viewBox="0 0 30 34.541259765625">
  <defs>
    <clipPath id="master_svg0_2346_25218">
      <rect x="5" y="5" width="20" height="20" rx="0" />
    </clipPath>
  </defs>
  <g>
    <g>
      <g>
        <g>
          <g>
            <path
              d="M23.2676,27.5123C23.3025,27.4948,23.3373,27.4774,23.3548,27.4425L25.9361,25.2449C28.4477,22.5589,30,18.9659,30,15.0067C30,6.42549,22.7967,-0.463907,14.1108,0.0244551C6.26209,0.477935,0.0529133,7.03595,0.00058876,14.8846C-0.0342943,18.8613,1.48312,22.4542,3.95981,25.1577L6.69813,27.4774C6.71557,27.4948,6.73301,27.4948,6.73301,27.5123L15.0003,34.5412L23.2676,27.5123Z"
              fill="#7B61FF" fill-opacity="1" />
          </g>
          <g>
            <path
              d="M2,15C2,19.6445,4.477790000000001,23.9361,8.5,26.2583C12.5222,28.5806,17.477800000000002,28.5806,21.5,26.2583C25.5222,23.9361,28,19.6445,28,15C28,7.8203,22.1797,2,15,2C7.8203,2,2,7.8203,2,15Z"
              fill="#FFFFFF" fill-opacity="1" />
          </g>
        </g>
      </g>
    </g>
    <g clip-path="url(#master_svg0_2346_25218)">
      <g>
        <path
          d="M23.42999755859375,8L15.99999755859375,8C15.44999755859375,8,14.99999755859375,8.32,14.99999755859375,8.72C14.99999755859375,9.120000000000001,15.44999755859375,9.44,15.99999755859375,9.44L21.799997558593752,9.44C22.34999755859375,9.44,22.79999755859375,9.58,22.79999755859375,9.75L22.79999755859375,12.879999999999999C22.79999755859375,13.43,22.63999755859375,13.809999999999999,22.43999755859375,13.73L22.25999755859375,13.6C21.42759755859375,12.94211,20.25239755859375,12.94211,19.41999755859375,13.6C18.90269755859375,14.035309999999999,18.14729755859375,14.035309999999999,17.62999755859375,13.6C16.79889755859375,12.93842,15.62107755859375,12.93842,14.78999755859375,13.6C14.27272755859375,14.035309999999999,13.517267558593751,14.035309999999999,12.999997558593751,13.6C12.168917558593751,12.93842,10.99107755859375,12.93842,10.15999755859375,13.6C9.91451755859375,13.81655,9.59731755859375,13.93416,9.26999755859375,13.93C8.94250755859375,13.935130000000001,8.62497755859375,13.81739,8.37999755859375,13.6L8.12999755859375,13.42C7.63817755859375,13.18401,7.32660755859375,12.685500000000001,7.32999755859375,12.14L7.32999755859375,8L6.68999755859375,8C6.33999755859375,8,6.05999755859375,8.45,6.05999755859375,9L6.05999755859375,21C6.05999746322635,21.552300000000002,6.50771255859375,22,7.05999755859375,22L23.05999755859375,22C23.61229755859375,22,24.05999755859375,21.552300000000002,24.05999755859375,21L24.05999755859375,9C24.05999755859375,8.45,23.76999755859375,8,23.42999755859375,8Z"
          fill="#7B61FF" fill-opacity="1" />
      </g>
      <g>
        <path
          d="M10.850009765625,10.419996948242188C11.170009765625,10.419996948242188,11.430009765625,10.259996948242188,11.430009765625,9.699996948242188C11.374889765625,9.303640948242187,11.166679765625,8.944654948242187,10.850009765625,8.699996948242188C10.533339765625,8.944654948242187,10.325129765625,9.303640948242187,10.270009765625,9.699996948242188C10.270009765625,10.249996948242188,10.530009765625,10.419996948242188,10.850009765625,10.419996948242188ZM12.350009765625,10.419996948242188C12.670009765625,10.419996948242188,12.930009765625,10.259996948242188,12.930009765625,9.699996948242188C12.874889765625,9.303640948242187,12.666679765625,8.944654948242187,12.350009765625,8.699996948242188C12.033339765625,8.944654948242187,11.825129765625,9.303640948242187,11.770009765625,9.699996948242188C11.760009765625,10.249996948242188,12.000009765625,10.419996948242188,12.350009765625,10.419996948242188ZM9.340009765625,10.419996948242188C9.660009765625,10.419996948242188,9.920009765625,10.259996948242188,9.920009765625,9.699996948242188C9.864889765625,9.303640948242187,9.656677765625,8.944654948242187,9.340009765625,8.699996948242188C9.023341765625,8.944654948242187,8.815129065625,9.303640948242187,8.760009765625,9.699996948242188C8.760009765625,10.249996948242188,9.000009765625,10.419996948242188,9.340009765625,10.419996948242188Z"
          fill="#7B61FF" fill-opacity="1" />
      </g>
    </g>
  </g>
</svg>