<svg xmlns="http://www.w3.org/2000/svg" xmlns:xlink="http://www.w3.org/1999/xlink" fill="none" version="1.1" width="30"
  height="34.541229248046875" viewBox="0 0 30 34.541229248046875">
  <g>
    <g>
      <g>
        <g>
          <path
            d="M23.2676,27.5123C23.3025,27.4948,23.3373,27.4774,23.3548,27.4425L25.9361,25.2449C28.4477,22.5589,30,18.9659,30,15.0067C30,6.42549,22.7967,-0.463907,14.1108,0.0244551C6.26209,0.477935,0.0529133,7.03595,0.00058876,14.8846C-0.0342943,18.8613,1.48312,22.4542,3.95981,25.1577L6.69813,27.4774C6.71557,27.4948,6.73301,27.4948,6.73301,27.5123L15.0003,34.5412L23.2676,27.5123Z"
            fill="#1490FF" fill-opacity="1" />
        </g>
        <g>
          <path
            d="M2.37109375,15.00660625C2.37109375,19.51800625,4.77791375,23.68670625,8.68492375,25.94240625C12.59189375,28.19810625,17.40559375,28.19810625,21.31259375,25.94240625C25.21959375,23.68670625,27.62639375,19.51800625,27.62639375,15.00660625C27.62639375,8.03250625,21.97279375,2.37890625,14.99879375,2.37890625C8.02469375,2.37890625,2.37109375,8.03250625,2.37109375,15.00660625Z"
            fill="#FFFFFF" fill-opacity="1" />
        </g>
        <g>
          <path
            d="M6.3125,19.280359375L15.73092,19.280359375L15.73092,19.855959374999998L6.3125,19.855959374999998L6.3125,19.280359375ZM16.9344,19.262859374999998L23.6843,19.262859374999998L23.6843,19.873359375L16.9344,19.873359375L16.9344,19.262859374999998ZM23.6808,21.197659375L10.582180000000001,21.197659375L10.582180000000001,20.622159375000003L23.6808,20.622159375000003L23.6808,21.197659375ZM9.392669999999999,21.215159375L6.3229651,21.215159375L6.3229651,20.604659375L9.392669999999999,20.604659375L9.392669999999999,21.215159375ZM22.2366,7.943359375L7.76015,7.943359375C6.957836,7.943359375,6.3125,8.553812375,6.3125,9.303799375L6.3125,18.129159375L23.6668,18.129159375L23.6668,9.303799375C23.6843,8.553812375,23.0215,7.943359375,22.2366,7.943359375ZM15.55651,16.838529375C15.55651,17.152479375,15.29488,17.396659375,14.98093,17.396659375C14.66699,17.396659375,14.40536,17.152479375,14.40536,16.838529375C14.40536,16.524589374999998,14.66699,16.280399375000002,14.98093,16.280399375000002C15.03326,16.280399375000002,15.08558,16.280399375000002,15.12047,16.297849375L16.06231,15.007179375L16.3763,15.233919375L15.43441,16.524589374999998C15.52162,16.594349375,15.55651,16.716439375,15.55651,16.838529375ZM20.7715,17.222249375L19.2367,17.222249375L19.2367,16.838529375L19.9867,16.838529375C19.9169,15.687389375,19.445999999999998,14.640899375,18.695999999999998,13.838589375L18.1378,14.379279375L17.858800000000002,14.117659374999999L18.4169,13.576969375000001C17.5623,12.792099375,16.4286,12.303739375,15.17279,12.251409375L15.17279,13.001399375L14.78908,13.001399375L14.78908,12.251409375C13.533290000000001,12.303739375,12.39959,12.792099375,11.54496,13.594409375L12.08564,14.117659374999999L11.80658,14.379279375L11.265889999999999,13.856029375C10.53335,14.658339375,10.062429999999999,15.704839374999999,9.99266,16.838529375L10.725200000000001,16.838529375L10.725200000000001,17.222249375L9.19035,17.222249375L9.19035,16.838529375L9.24268,16.838529375C9.31244,15.478099375,9.87057,14.257189375,10.742650000000001,13.315349375C11.754249999999999,12.233969375000001,13.2019,11.536309375,14.80652,11.483989375L15.19023,11.483989375C18.1902,11.588639375,20.6145,13.908359375,20.7541,16.838529375L20.7541,17.222249375L20.7715,17.222249375Z"
            fill="#1490FF" fill-opacity="1" />
        </g>
      </g>
    </g>
  </g>
</svg>