<svg xmlns="http://www.w3.org/2000/svg" xmlns:xlink="http://www.w3.org/1999/xlink" fill="none" version="1.1" width="70"
  height="73" viewBox="0 0 70 73">
  <defs>
    <filter id="master_svg0_2375_53067" filterUnits="objectBoundingBox" color-interpolation-filters="sRGB" x="-24"
      y="-24" width="78" height="55">
      <feFlood flood-opacity="0" result="BackgroundImageFix" />
      <feBlend mode="normal" in="SourceGraphic" in2="BackgroundImageFix" result="shape" />
      <feGaussianBlur stdDeviation="6" result="effect1_foregroundBlur" />
    </filter>
    <filter id="master_svg1_2375_53068" filterUnits="objectBoundingBox" color-interpolation-filters="sRGB" x="0" y="0"
      width="35" height="35">
      <feFlood flood-opacity="0" result="BackgroundImageFix" />
      <feBlend mode="normal" in="SourceGraphic" in2="BackgroundImageFix" result="shape" />
      <feOffset dy="-6" dx="0" />
      <feGaussianBlur stdDeviation="3.5" />
      <feComposite in2="hardAlpha" operator="arithmetic" k2="-1" k3="1" />
      <feColorMatrix type="matrix"
        values="0 0 0 0 0.07058823853731155 0 0 0 0 0.13725490868091583 0 0 0 0 0.7176470756530762 0 0 0 0.3019607961177826 0" />
      <feBlend mode="normal" in2="shape" result="effect1_innerShadow" />
    </filter>
    <clipPath id="master_svg2_2375_53068">
      <rect x="18" y="18" width="35" height="35" rx="0" />
    </clipPath>
    <filter id="master_svg3_2375_53069" filterUnits="objectBoundingBox" color-interpolation-filters="sRGB"
      x="-29.024845123291016" y="-21.108978748321533" width="72.8757848739624" height="68.54969024658203">
      <feFlood flood-opacity="0" result="BackgroundImageFix" />
      <feColorMatrix in="SourceAlpha" type="matrix" values="0 0 0 0 0 0 0 0 0 0 0 0 0 0 0 0 0 0 127 0" />
      <feOffset dy="7.915866374969482" dx="0" />
      <feGaussianBlur stdDeviation="7.256211280822754" />
      <feColorMatrix type="matrix"
        values="0 0 0 0 0 0 0 0 0 0.04500006139278412 0 0 0 0 0.44999998807907104 0 0 0 0.25 0" />
      <feBlend mode="normal" in2="BackgroundImageFix" result="effect1_dropShadow" />
      <feBlend mode="normal" in="SourceGraphic" in2="effect1_dropShadow" result="shape" />
      <feColorMatrix in="SourceAlpha" type="matrix" result="hardAlpha"
        values="0 0 0 0 0 0 0 0 0 0 0 0 0 0 0 0 0 0 127 0" />
      <feOffset dy="-2" dx="0" />
      <feGaussianBlur stdDeviation="3.2982778549194336" />
      <feComposite in2="hardAlpha" operator="arithmetic" k2="-1" k3="1" />
      <feColorMatrix type="matrix"
        values="0 0 0 0 0.6901960968971252 0 0 0 0 0.776941180229187 0 0 0 0 1 0 0 0 0.6000000238418579 0" />
      <feBlend mode="normal" in2="shape" result="effect2_innerShadow" />
    </filter>
  </defs>
  <g>
    <g>
      <g>
        <path
          d="M70,35C70,54.33,54.33,70,35,70C15.67,70,0,54.33,0,35C0,15.67,15.67,0,35,0C54.33,0,70,15.67,70,35C70,35,70,35,70,35Z"
          fill="#F6F7FB" fill-opacity="1" />
      </g>
      <g filter="url(#master_svg0_2375_53067)">
        <ellipse cx="34" cy="51.5" rx="15" ry="3.5" fill="#7CA0FD" fill-opacity="1" />
      </g>
      <g filter="url(#master_svg1_2375_53068)">
        <g clip-path="url(#master_svg2_2375_53068)">
          <g transform="matrix(0.747484564781189,0.6642791628837585,0.6642791628837585,-0.747484564781189,-22.49169907941723,59.16774094928769)"
            filter="url(#master_svg3_2375_53069)">
            <path
              d="M38.3251234375,50.87866545898437C38.3251234375,52.210605458984375,37.8496234375,53.291595458984375,37.2661234375,53.291595458984375C37.2661234375,53.291595458984375,24.5580334375,53.291595458984375,24.5580334375,53.291595458984375C23.9745174375,53.291595458984375,23.4990234375,52.210605458984375,23.4990234375,50.87866545898437C23.4990234375,50.87866545898437,23.49902343750203,45.506135458984375,23.49902343750203,45.506135458984375C23.499023437502593,44.006945458984376,24.1211484375,42.791595458984375,24.8885834375,42.791595458984375C24.8885834375,42.791595458984375,36.9355234375,42.791595458984375,36.9355234375,42.791595458984375C37.702923437500004,42.791595458984375,38.3251234375,44.006945458984376,38.3251234375,45.506135458984375C38.3251234375,45.506135458984375,38.3251234375,50.87866545898437,38.3251234375,50.87866545898437C38.3251234375,50.87866545898437,38.3251234375,50.87866545898437,38.3251234375,50.87866545898437Z"
              fill="#FFFFFF" fill-opacity="1" />
          </g>
          <g>
            <path
              d="M35.5,53C28.73451,53,23.25,47.5155,23.25,40.75C23.25,36.2402,27.33275,28.6575,35.5,18C43.6672,28.6575,47.75,36.2402,47.75,40.75C47.75,47.5155,42.2655,53,35.5,53ZM25.875,40.75C25.875,46.0657,30.184260000000002,50.375,35.5,50.375C35.9832,50.375,36.375,49.9832,36.375,49.5C36.375,49.0168,35.9832,48.625,35.5,48.625C31.15076,48.625,27.625,45.099199999999996,27.625,40.75C27.625,40.2668,27.233249999999998,39.875,26.75,39.875C26.266750000000002,39.875,25.875,40.2668,25.875,40.75Z"
              fill="#7DA2FF" fill-opacity="1" />
          </g>
        </g>
      </g>
    </g>
  </g>
</svg>