<svg xmlns="http://www.w3.org/2000/svg" xmlns:xlink="http://www.w3.org/1999/xlink" fill="none" version="1.1" width="74"
  height="75" viewBox="0 0 74 75">
  <defs>
    <clipPath id="master_svg0_2375_52934">
      <rect x="11" y="10" width="51" height="51" rx="0" />
    </clipPath>
    <filter id="master_svg1_2375_52935" filterUnits="objectBoundingBox" color-interpolation-filters="sRGB" x="0" y="0"
      width="41.836036682128906" height="41.83603286743164">
      <feFlood flood-opacity="0" result="BackgroundImageFix" />
      <feBlend mode="normal" in="SourceGraphic" in2="BackgroundImageFix" result="shape" />
      <feColorMatrix in="SourceAlpha" type="matrix" result="hardAlpha"
        values="0 0 0 0 0 0 0 0 0 0 0 0 0 0 0 0 0 0 127 0" />
      <feOffset dy="2" dx="0" />
      <feGaussianBlur stdDeviation="1.5" />
      <feComposite in2="hardAlpha" operator="arithmetic" k2="-1" k3="1" />
      <feColorMatrix type="matrix" values="0 0 0 0 1 0 0 0 0 1 0 0 0 0 1 0 0 0 0.3019607961177826 0" />
      <feBlend mode="normal" in2="shape" result="effect1_innerShadow" />
      <feColorMatrix in="SourceAlpha" type="matrix" result="hardAlpha"
        values="0 0 0 0 0 0 0 0 0 0 0 0 0 0 0 0 0 0 127 0" />
      <feOffset dy="-6" dx="0" />
      <feGaussianBlur stdDeviation="3.5" />
      <feComposite in2="hardAlpha" operator="arithmetic" k2="-1" k3="1" />
      <feColorMatrix type="matrix"
        values="0 0 0 0 0.07058823853731155 0 0 0 0 0.13725490868091583 0 0 0 0 0.7176470756530762 0 0 0 0.3499999940395355 0" />
      <feBlend mode="normal" in2="effect1_innerShadow" result="effect2_innerShadow" />
    </filter>
    <filter id="master_svg2_2375_52936" filterUnits="objectBoundingBox" color-interpolation-filters="sRGB" x="-24"
      y="-24" width="86" height="62">
      <feFlood flood-opacity="0" result="BackgroundImageFix" />
      <feBlend mode="normal" in="SourceGraphic" in2="BackgroundImageFix" result="shape" />
      <feGaussianBlur stdDeviation="6" result="effect1_foregroundBlur" />
    </filter>
  </defs>
  <g>
    <g>
      <path
        d="M71,35C71,54.33,55.33,70,36,70C16.67,70,1,54.33,1,35C1,15.67,16.67,0,36,0C55.33,0,71,15.67,71,35C71,35,71,35,71,35Z"
        fill="#F6F7FB" fill-opacity="1" />
    </g>
    <g clip-path="url(#master_svg0_2375_52934)">
      <g filter="url(#master_svg1_2375_52935)">
        <path
          d="M55.88633125,27.629485473632812C54.83363125,25.033485473632812,53.28763125,22.705025473632812,51.29143125,20.708805473632815C49.29513125,18.712535473632812,46.966731249999995,17.166595473632814,44.37063125,16.11382547363281C41.86413125,15.097413473632812,39.21603125,14.582035083732812,36.500131249999995,14.581985473632812L36.500131249999995,14.581985473632812C33.78413125,14.581985473632812,31.13593125,15.097414473632812,28.62953125,16.113775473632813C26.03353125,17.166495473632814,23.70502125,18.71248547363281,21.70880125,20.70870547363281C19.71258125,22.704925473632812,18.16664125,25.033385473632812,17.11387125,27.629485473632812C16.09741025,30.13608547363281,15.58203125,32.784085473632814,15.58203125,35.50008547363281C15.58203125,38.21598547363281,16.09741025,40.86408547363281,17.11387125,43.37068547363281C18.16659125,45.96668547363281,19.71258125,48.29518547363281,21.70880125,50.291385473632815C23.705031249999998,52.28758547363281,26.03353125,53.833585473632816,28.62953125,54.88628547363281C31.136031250000002,55.902685473632815,33.78403125,56.41798547363281,36.50003125,56.41798547363281C39.21603125,56.41798547363281,41.86403125,55.90258547363281,44.37053125,54.88608547363281C46.96653125,53.83338547363281,49.29503125,52.28738547363281,51.29123125,50.291185473632815C53.28753125,48.29488547363281,54.83343125,45.966485473632815,55.88623125,43.37048547363281C56.90273125,40.86398547363281,57.41803125,38.21598547363281,57.41803125,35.49998547363281C57.41803125,32.784085473632814,56.90273125,30.13608547363281,55.88633125,27.629485473632812ZM43.59393125,32.94538547363281L38.34273125,32.94538547363281L38.34273125,35.67528547363281L43.01903125,35.67528547363281C44.03673125,35.67528547363281,44.86173125,36.500285473632815,44.86173125,37.51808547363281C44.86173125,38.53588547363282,44.03673125,39.36088547363281,43.01903125,39.36088547363281L38.34273125,39.36088547363281L38.34273125,45.50898547363281C38.34273125,46.52678547363281,37.51773125,47.35178547363281,36.50003125,47.35178547363281C35.48223125,47.35178547363281,34.657231249999995,46.52678547363281,34.657231249999995,45.50898547363281L34.657231249999995,39.36088547363281L29.98103125,39.36088547363281C28.96323125,39.36088547363281,28.13823125,38.53588547363282,28.13823125,37.51808547363281C28.13823125,36.500285473632815,28.96323125,35.67528547363281,29.98103125,35.67528547363281L34.657231249999995,35.67528547363281L34.657231249999995,32.94538547363281L29.406031249999998,32.94538547363281C28.38833125,32.94538547363281,27.563331249999997,32.12038547363281,27.563331249999997,31.102585473632814C27.563331249999997,30.084885473632813,28.38833125,29.25978547363281,29.406031249999998,29.25978547363281L32.87743125,29.25978547363281L30.57903125,26.200685473632813C29.96763125,25.387085473632812,30.131631249999998,24.23189547363281,30.945331250000002,23.620535473632813C31.75903125,23.009235473632813,32.91423125,23.17324547363281,33.52553125,23.986905473632813L36.57093125,28.04018547363281L39.712031249999995,23.882265473632813C40.32553125,23.070195473632815,41.481131250000004,22.909225473632812,42.29313125,23.522675473632813C43.10523125,24.136165473632815,43.26613125,25.291785473632814,42.65273125,26.10378547363281L40.268531249999995,29.259885473632814L43.59383125,29.259885473632814C44.61163125,29.259885473632814,45.436631250000005,30.084885473632813,45.436631250000005,31.102685473632814C45.436631250000005,32.12038547363281,44.61163125,32.94538547363281,43.59393125,32.94538547363281Z"
          fill="#7DA2FF" fill-opacity="1" />
      </g>
    </g>
    <g filter="url(#master_svg2_2375_52936)">
      <ellipse cx="37" cy="50" rx="19" ry="7" fill="#7CA0FD" fill-opacity="1" />
    </g>
  </g>
</svg>