<svg width="957" height="1058" xmlns="http://www.w3.org/2000/svg" xmlns:xlink="http://www.w3.org/1999/xlink"
    xml:space="preserve" overflow="hidden">
    <defs>
        <clipPath id="clip0">
            <rect x="382" y="73" width="957" height="1058" />
        </clipPath>
    </defs>
    <g clip-path="url(#clip0)" transform="translate(-382 -73)">
        <g>
            <g>
                <g>
                    <path
                        d="M738.624 838.39C739.731 837.855 740.834 837.328 741.385 836.266L823.331 769.294C903.06 687.443 952.338 577.954 952.338 457.303 952.338 195.806 723.672-14.1368 447.94 0.745229 198.788 14.5642 1.67971 214.408 0.01869 453.585-1.08866 574.766 47.0808 684.255 125.703 766.637L212.629 837.328C213.184 837.855 213.737 837.855 213.737 838.39L476.177 1052.58 738.624 838.39Z"
                        fill="#94B612" transform="matrix(1 0 0 1.00048 384.093 76.0626)" />
                    <path
                        d="M75.3315 457.31C75.3315 594.79 151.735 721.827 275.761 790.561 399.788 859.301 552.597 859.301 676.621 790.561 800.646 721.827 877.051 594.79 877.051 457.31 877.051 244.788 697.582 72.5045 476.191 72.5045 254.803 72.5045 75.3315 244.788 75.3315 457.31Z"
                        fill="#94B612" transform="matrix(1 0 0 1.00048 384.093 76.0626)" />
                    <g>
                        <path
                            d="M623.717 463.076 718.634 405.01C718.639 405.006 718.644 405.003 718.65 404.999 720.89 403.611 723.461 402.85 726.097 402.798 728.734 402.746 731.336 403.405 733.631 404.705M623.717 463.076 358.394 211.144 287.345 211.144C287.344 211.144 287.344 211.144 287.344 211.144 283.48 211.143 279.768 212.653 277.002 215.352 274.236 218.052 272.636 221.726 272.543 225.59L272.543 225.592 261.932 675.915C261.932 675.915 261.932 675.915 261.932 675.915 261.884 677.889 262.231 679.849 262.952 681.679 263.672 683.518 264.752 685.187 266.129 686.601 267.505 688.014 269.149 689.137 270.965 689.904 272.78 690.67 274.731 691.067 276.702 691.072L276.712 691.072 726.388 691.072C730.318 691.072 734.083 689.513 736.859 686.736 739.631 683.96 741.19 680.195 741.19 676.27L741.19 417.607 741.19 417.603C741.19 414.972 740.488 412.389 739.155 410.121 737.826 407.858 735.922 405.989 733.631 404.705M623.717 463.076 623.717 417.588 623.717 417.583C623.717 414.954 623.01 412.373 621.681 410.105 620.348 407.837 618.439 405.965 616.143 404.681 613.852 403.397 611.256 402.747 608.624 402.798 605.997 402.849 603.431 403.599 601.186 404.971 601.186 404.971 601.186 404.971 601.186 404.972L506.243 463.075 506.243 417.608 506.243 417.58C506.228 414.967 505.521 412.405 504.198 410.151 502.88 407.898 500.983 406.033 498.71 404.747 496.436 403.46 493.863 402.796 491.251 402.822 488.638 402.849 486.079 403.564 483.832 404.896L483.801 404.915 382.123 466.177 373.196 225.388 373.196 225.383C373.05 221.556 371.427 217.934 368.667 215.278 365.907 212.623 362.226 211.141 358.398 211.144L623.717 463.076ZM733.631 404.705C733.626 404.702 733.621 404.699 733.617 404.696L731.17 409.071 733.646 404.713C733.641 404.711 733.636 404.708 733.631 404.705ZM353.369 492.451 359.728 661.469 291.869 661.469 301.794 240.748 344.13 240.748 353.423 491.479C353.389 491.71 353.365 491.973 353.365 492.263L353.361 492.263 353.369 492.451ZM353.69 490.428C353.708 490.376 353.717 490.354 353.706 490.381L353.69 490.428ZM383.368 500.023 476.637 443.808 476.637 550.707 476.637 661.469 389.365 661.469 383.368 500.023ZM506.243 661.469 506.243 497.793 594.114 444.016 594.114 661.469 506.243 661.469ZM711.587 661.469 623.717 661.469 623.717 497.793 711.587 444.016 711.587 661.469Z"
                            stroke="#00ABF9" stroke-width="10.0246" fill="#94B612"
                            transform="matrix(1 0 0 1.00048 384.093 76.0626)" />
                        <path
                            d="M432.837 551.645C434.123 551.645 435.395 551.394 436.583 550.903 437.772 550.412 438.85 549.69 439.76 548.777 440.669 547.87 441.391 546.792 441.882 545.605 442.374 544.416 442.627 543.143 442.627 541.855L442.627 517.245C442.627 514.648 441.596 512.158 439.76 510.323 437.924 508.489 435.434 507.456 432.837 507.456 430.241 507.456 427.751 508.489 425.915 510.323 424.079 512.158 423.048 514.648 423.048 517.245L423.048 541.855C423.048 544.451 424.079 546.943 425.915 548.777 427.751 550.617 430.24 551.645 432.837 551.645ZM550.332 507.456C547.735 507.456 545.249 508.489 543.409 510.323 541.575 512.158 540.542 514.648 540.542 517.245L540.542 541.855C540.542 544.451 541.575 546.943 543.409 548.777 545.249 550.617 547.735 551.645 550.332 551.645 552.928 551.645 555.419 550.617 557.253 548.777 559.093 546.943 560.12 544.451 560.12 541.855L560.12 517.245C560.12 514.648 559.093 512.158 557.253 510.323 555.419 508.489 552.928 507.456 550.332 507.456ZM667.81 551.645C670.406 551.645 672.897 550.617 674.731 548.777 676.566 546.943 677.599 544.451 677.599 541.855L677.599 517.245C677.599 514.648 676.566 512.163 674.731 510.323 672.892 508.489 670.406 507.461 667.81 507.461 665.214 507.461 662.722 508.489 660.888 510.323 659.053 512.163 658.02 514.648 658.02 517.245L658.02 541.855C658.02 544.451 659.048 546.943 660.888 548.777 662.722 550.617 665.214 551.645 667.81 551.645Z"
                            fill="#94B612" transform="matrix(1 0 0 1.00048 384.093 76.0626)" />
                    </g>
                </g>
            </g>
        </g>
        <path
            d="M2324.52 527.231C2324.52 308.117 2502.5 130.491 2722.07 130.491 2941.63 130.491 3119.62 308.117 3119.62 527.231 3119.62 746.344 2941.63 923.971 2722.07 923.971 2502.5 923.971 2324.52 746.344 2324.52 527.231Z"
            fill-rule="evenodd" transform="matrix(1 0 0 1.00024 -1861.8 9.58529)" /><text fill="#94B612"
            font-family="Microsoft YaHei,Microsoft YaHei_MSFontService,sans-serif" font-weight="700" font-size="779"
            transform="matrix(0.810501 0 0 0.810697 599.265 737)">Q</text>
    </g>
</svg>