<svg width="19" height="21" viewBox="0 0 19 21" fill="none" xmlns="http://www.w3.org/2000/svg">
    <path
        d="M14.7362 16.7267C14.7583 16.716 14.7803 16.7054 14.7913 16.6842L16.4262 15.3481C18.0169 13.7151 19 11.5307 19 9.1236C19 3.9065 14.4379 -0.282041 8.93681 0.014868C3.966 0.290569 0.0335118 4.27764 0.000372882 9.04943C-0.0217197 11.4671 0.939305 13.6515 2.50788 15.2951L4.24215 16.7054C4.2532 16.716 4.26424 16.716 4.26424 16.7267L9.50016 21L14.7362 16.7267Z"
        fill="#00ABF9" />
    <path
        d="M1.50293 9.12376C1.50293 11.8666 3.02724 14.4011 5.50169 15.7724C7.97613 17.1438 11.0248 17.1438 13.4992 15.7724C15.9736 14.4011 17.498 11.8666 17.498 9.12376C17.498 4.88375 13.9174 1.44653 9.50043 1.44653C5.08354 1.44653 1.50293 4.88375 1.50293 9.12376Z"
        fill="#232324" />
    <g clip-path="url(#clip0_1521_53868)">
        <path
            d="M12.4437 9.23878L14.3374 8.08031C14.3375 8.08024 14.3376 8.08017 14.3377 8.0801C14.3824 8.05239 14.4337 8.03722 14.4863 8.03618C14.5389 8.03514 14.5908 8.04829 14.6366 8.07423M12.4437 9.23878L7.15028 4.2125L5.73279 4.2125C5.73278 4.2125 5.73277 4.2125 5.73277 4.2125C5.65567 4.21249 5.58162 4.24262 5.52644 4.29647C5.47126 4.35033 5.43933 4.42364 5.43748 4.50072L5.43748 4.50077L5.22577 13.4851C5.22577 13.4851 5.22577 13.4851 5.22577 13.4851C5.22483 13.5245 5.23175 13.5636 5.24612 13.6001C5.2605 13.6368 5.28205 13.6701 5.3095 13.6983C5.33696 13.7265 5.36976 13.7489 5.40599 13.7642C5.44221 13.7795 5.48113 13.7874 5.52047 13.7875H5.52065H14.4921C14.5705 13.7875 14.6456 13.7564 14.701 13.701C14.7563 13.6456 14.7874 13.5705 14.7874 13.4922V8.33164V8.33155C14.7874 8.27906 14.7734 8.22754 14.7468 8.18228C14.7203 8.13714 14.6823 8.09985 14.6366 8.07423M12.4437 9.23878V8.33125V8.33116C12.4437 8.2787 12.4296 8.22721 12.4031 8.18196C12.3765 8.13672 12.3384 8.09937 12.2926 8.07375C12.2469 8.04812 12.1951 8.03515 12.1426 8.03618C12.0902 8.0372 12.039 8.05217 11.9942 8.07955C11.9942 8.07955 11.9942 8.07955 11.9942 8.07956L10.1 9.23875L10.1 8.33165L10.1 8.33109C10.0997 8.27896 10.0856 8.22784 10.0592 8.18289C10.0329 8.13793 9.99507 8.10073 9.94971 8.07506C9.90435 8.04938 9.85301 8.03614 9.80089 8.03666C9.74877 8.03719 9.69771 8.05146 9.65287 8.07804L9.65226 8.07841L7.62369 9.30066L7.44559 4.49669L7.44559 4.4966C7.44268 4.42024 7.4103 4.34797 7.35523 4.29499C7.30017 4.24203 7.22674 4.21246 7.15035 4.2125L12.4437 9.23878ZM14.6366 8.07423C14.6365 8.07417 14.6364 8.07411 14.6363 8.07405L14.5875 8.16133L14.6369 8.07439C14.6368 8.07434 14.6367 8.07429 14.6366 8.07423ZM7.05002 9.82485L7.17689 13.1969H5.82305L6.02106 4.80313H6.86569L7.05111 9.80546C7.05043 9.81004 7.04995 9.8153 7.04995 9.82109H7.04988L7.05002 9.82485ZM7.05644 9.78448C7.0568 9.78343 7.05697 9.78299 7.05677 9.78355L7.05644 9.78448ZM7.64855 9.97591L9.50933 8.85437V10.9871V13.1969H7.76819L7.64855 9.97591ZM10.1 13.1969V9.93143L11.8531 8.85852V13.1969H10.1ZM14.1968 13.1969H12.4437V9.93143L14.1968 8.85852V13.1969Z"
            fill="#00ABF9" stroke="#00ABF9" stroke-width="0.2" />
        <path
            d="M8.63549 11.0058C8.66114 11.0058 8.68653 11.0008 8.71023 10.991C8.73393 10.9812 8.75546 10.9668 8.7736 10.9486C8.79174 10.9305 8.80613 10.909 8.81594 10.8853C8.82576 10.8616 8.83081 10.8362 8.83081 10.8105V10.3195C8.83081 10.2677 8.81024 10.218 8.77361 10.1814C8.73698 10.1448 8.6873 10.1242 8.6355 10.1242C8.5837 10.1242 8.53402 10.1448 8.49739 10.1814C8.46076 10.218 8.44019 10.2677 8.44019 10.3195V10.8105C8.44019 10.8623 8.46076 10.912 8.49739 10.9486C8.53402 10.9853 8.58369 11.0058 8.63549 11.0058ZM10.9796 10.1242C10.9278 10.1242 10.8782 10.1448 10.8415 10.1814C10.8049 10.218 10.7843 10.2677 10.7843 10.3195V10.8105C10.7843 10.8623 10.8049 10.912 10.8415 10.9486C10.8782 10.9853 10.9278 11.0058 10.9796 11.0058C11.0314 11.0058 11.0811 10.9853 11.1177 10.9486C11.1544 10.912 11.1749 10.8623 11.1749 10.8105V10.3195C11.1749 10.2677 11.1544 10.218 11.1177 10.1814C11.0811 10.1448 11.0314 10.1242 10.9796 10.1242ZM13.3234 11.0058C13.3752 11.0058 13.4249 10.9853 13.4615 10.9486C13.4981 10.912 13.5187 10.8623 13.5187 10.8105V10.3195C13.5187 10.2677 13.4981 10.2181 13.4615 10.1814C13.4248 10.1448 13.3752 10.1243 13.3234 10.1243C13.2716 10.1243 13.2219 10.1448 13.1853 10.1814C13.1487 10.2181 13.1281 10.2677 13.1281 10.3195V10.8105C13.1281 10.8623 13.1486 10.912 13.1853 10.9486C13.2219 10.9853 13.2716 11.0058 13.3234 11.0058Z"
            fill="#00ABF9" />
    </g>
    <defs>
        <clipPath id="clip0_1521_53868">
            <rect width="10" height="10" fill="white" transform="translate(5 4)" />
        </clipPath>
    </defs>
</svg>