<svg width="18" height="7" viewBox="0 0 18 7" fill="none" xmlns="http://www.w3.org/2000/svg">
    <path
        d="M20.625 2H11.5284C11.0344 1.09995 10.0752 0.5 9 0.5C7.92478 0.5 6.9946 1.09995 6.47156 2H-2.625V5H6.47156C6.96562 5.90005 7.92478 6.5 9 6.5C10.0752 6.5 11.0054 5.90005 11.5284 5H20.625V2ZM8.99991 5.3001C8.04085 5.3001 7.25607 4.49005 7.25607 3.5C7.25607 2.50995 8.04085 1.69989 8.99991 1.69989C9.95906 1.69989 10.7438 2.50995 10.7438 3.5C10.7438 4.49005 9.95906 5.3001 8.99991 5.3001Z"
        fill="#3C7EFF" />
</svg>