<svg xmlns="http://www.w3.org/2000/svg" xmlns:xlink="http://www.w3.org/1999/xlink" fill="none" version="1.1" width="25"
  height="28" viewBox="0 0 25 28">
  <g>
    <g>
      <g>
        <path
          d="M19.3896,22.3022C19.4187,22.288,19.4478,22.2739,19.4623,22.2456L21.6134,20.4642C23.7064,18.2868,25,15.3743,25,12.1648C25,5.20867,18.9972,-0.376055,11.759,0.019824C5.21841,0.387426,0.0440944,5.70352,0.000490634,12.0659C-0.0285786,15.2895,1.23593,18.202,3.29984,20.3935L5.58178,22.2739C5.59631,22.288,5.61085,22.288,5.61085,22.3022L12.5002,28L19.3896,22.3022Z"
          fill="#01D7C9" fill-opacity="1" />
      </g>
      <g>
        <path
          d="M1.9765625,12.1650109375C1.9765625,15.8221109375,3.9822425,19.2014109375,7.2380825,21.0299109375C10.4939325,22.8584109375,14.5052625,22.8584109375,17.761162499999998,21.0299109375C21.0169625,19.2014109375,23.0226625,15.8221109375,23.0226625,12.1650109375C23.0226625,6.5116609375,18.3113625,1.9287109375,12.4995625,1.9287109375C6.6878925,1.9287109375,1.9765625,6.5116609375,1.9765625,12.1650109375Z"
          fill="#FFFFFF" fill-opacity="1" />
      </g>
      <g>
        <path
          d="M5.26171875,15.6285265625L13.11039875,15.6285265625L13.11039875,16.0950965625L5.26171875,16.0950965625L5.26171875,15.6285265625ZM14.11328875,15.6143865625L19.73821875,15.6143865625L19.73821875,16.1092365625L14.11328875,16.1092365625L14.11328875,15.6143865625ZM19.735318749999998,17.182776562500003L8.81978875,17.182776562500003L8.81978875,16.7161765625L19.735318749999998,16.7161765625L19.735318749999998,17.182776562500003ZM7.82852875,17.1968765625L5.2704397,17.1968765625L5.2704397,16.7020765625L7.82852875,16.7020765625L7.82852875,17.1968765625ZM18.53181875,6.4384765625L6.46808875,6.4384765625C5.79949875,6.4384765625,5.26171875,6.9333255625,5.26171875,7.5412865625L5.26171875,14.6953865625L19.72361875,14.6953865625L19.72361875,7.5412865625C19.73821875,6.9333255625,19.18581875,6.4384765625,18.53181875,6.4384765625ZM12.96505875,13.6491365625C12.96505875,13.903626562500001,12.74703875,14.1015665625,12.485408750000001,14.1015665625C12.22378875,14.1015665625,12.00576875,13.903626562500001,12.00576875,13.6491365625C12.00576875,13.3946365625,12.22378875,13.1966965625,12.485408750000001,13.1966965625C12.529018749999999,13.1966965625,12.57261875,13.1966965625,12.601688750000001,13.210836562499999L13.38655875,12.1645865625L13.64817875,12.3483865625L12.86330875,13.3946365625C12.93598875,13.4511965625,12.96505875,13.5501665625,12.96505875,13.6491365625ZM17.31091875,13.960186562499999L16.03181875,13.960186562499999L16.03181875,13.6491365625L16.65681875,13.6491365625C16.59871875,12.7159865625,16.20631875,11.8676765625,15.58131875,11.2173065625L15.11617875,11.655596562500001L14.88361875,11.443516562500001L15.34871875,11.005226562499999C14.63652875,10.3689865625,13.69178875,9.9731165625,12.64529875,9.9306965625L12.64529875,10.5386565625L12.32552875,10.5386565625L12.32552875,9.9306965625C11.27903875,9.9731165625,10.33429875,10.3689865625,9.62209875,11.0193665625L10.07266875,11.443516562500001L9.84011875,11.655596562500001L9.38954875,11.2314465625C8.77908875,11.8818165625,8.38665875,12.7301265625,8.32851875,13.6491365625L8.93896875,13.6491365625L8.93896875,13.960186562499999L7.659928750000001,13.960186562499999L7.659928750000001,13.6491365625L7.70352875,13.6491365625C7.76166875,12.5463265625,8.22677875,11.5566265625,8.953508750000001,10.793146562499999C9.796508750000001,9.9165565625,11.00288875,9.3510165625,12.34006875,9.3085965625L12.659828749999999,9.3085965625C15.15977875,9.3934365625,17.18011875,11.2738565625,17.296318749999998,13.6491365625L17.296318749999998,13.960186562499999L17.31091875,13.960186562499999Z"
          fill="#01D7C9" fill-opacity="1" />
      </g>
    </g>
  </g>
</svg>