<svg width="18" height="21" viewBox="0 0 18 21" fill="none" xmlns="http://www.w3.org/2000/svg">
  <g clip-path="url(#clip0_313_30016)">
    <path
      d="M13.9605 16.7267C13.9815 16.716 14.0024 16.7054 14.0129 16.6842L15.5616 15.3481C17.0686 13.7151 18 11.5307 18 9.1236C18 3.9065 13.678 -0.282041 8.46648 0.014868C3.75726 0.290569 0.031748 4.27764 0.000353257 9.04943C-0.0205766 11.4671 0.88987 13.6515 2.37588 15.2951L4.01888 16.7054C4.02934 16.716 4.03981 16.716 4.03981 16.7267L9.00014 21L13.9605 16.7267Z"
      fill="#F6F6F6" />
    <path
      d="M1.20093 9.11939C1.20093 11.9431 2.6876 14.5523 5.10093 15.9641C7.51425 17.376 10.4876 17.376 12.9009 15.9641C15.3142 14.5523 16.801 11.9431 16.801 9.11939C16.801 4.75438 13.3087 1.21582 9.0009 1.21582C4.69311 1.21582 1.20093 4.75438 1.20093 9.11939Z"
      fill="#232324" />
    <path
      d="M5.39951 8.58741C5.24037 8.58691 5.08761 8.65074 4.97508 8.76476C4.86255 8.87879 4.79955 9.03359 4.80005 9.19484V12.9394C4.81302 13.2673 5.08059 13.5254 5.40438 13.5225C5.72817 13.5196 5.99115 13.2566 5.99835 12.9286V9.19484C5.99935 9.03354 5.9366 8.87854 5.8241 8.76442C5.7116 8.65031 5.5587 8.58656 5.39951 8.58741Z"
      fill="white" fill-opacity="0.9" />
    <path
      d="M9.90019 5.80335H12.4396C12.6414 5.80335 12.8349 5.72208 12.9775 5.57743C13.1202 5.43277 13.2002 5.23661 13.2001 5.03212C13.2015 4.82676 13.1221 4.62928 12.9793 4.48352C12.8366 4.33777 12.6422 4.2558 12.4396 4.2558H5.5593C5.35739 4.25614 5.1639 4.33782 5.02148 4.48285C4.87906 4.62788 4.79941 4.82434 4.80006 5.02894C4.7989 5.23402 4.87853 5.43111 5.02129 5.57649C5.16406 5.72187 5.35816 5.80352 5.56056 5.80335H8.0993V6.74603C8.09905 6.8064 8.10495 6.86663 8.11691 6.92577C7.37459 7.27367 6.89949 8.02701 6.89975 8.85575V10.4428H6.00088V11.9891H6.9809C7.23735 12.904 8.062 13.5354 9.00069 13.5354C9.93937 13.5354 10.764 12.904 11.0205 11.9891H11.9973V10.4428H11.101V8.85575C11.1014 8.0276 10.6261 7.27496 9.88383 6.92832C9.89487 6.86906 9.90034 6.80888 9.90019 6.74858V5.80335Z"
      fill="white" fill-opacity="0.9" />
    <path
      d="M12.0003 11.9913H11.9972V12.9371C11.9988 13.2728 12.2686 13.5436 12.5998 13.542C12.931 13.5404 13.1983 13.267 13.1967 12.9314V9.19508C13.1967 8.85944 12.9282 8.58734 12.597 8.58734C12.2657 8.58734 11.9972 8.85944 11.9972 9.19508V10.4431H12.0003V11.9913Z"
      fill="white" fill-opacity="0.9" />
  </g>
  <defs>
    <clipPath id="clip0_313_30016">
      <rect width="18" height="21" fill="white" />
    </clipPath>
  </defs>
</svg>