<svg width="954" height="1058" xmlns="http://www.w3.org/2000/svg" xmlns:xlink="http://www.w3.org/1999/xlink"
  xml:space="preserve" overflow="hidden">
  <defs>
    <clipPath id="clip0">
      <rect x="405" y="79" width="954" height="1058" />
    </clipPath>
  </defs>
  <g clip-path="url(#clip0)" transform="translate(-405 -79)">
    <g>
      <g>
        <g>
          <path
            d="M738.794 838.583C739.901 838.048 741.005 837.521 741.556 836.459L823.52 769.471C903.268 687.601 952.557 578.087 952.557 457.408 952.557 195.851 723.838-14.14 448.043 0.745401 198.834 14.5676 1.6801 214.458 0.0186943 453.69-1.08891 574.899 47.0917 684.412 125.732 766.814L212.678 837.521C213.233 838.048 213.786 838.048 213.786 838.583L476.287 1052.82 738.794 838.583Z"
            fill="#3BA5A7" transform="matrix(1.00016 0 0 1 405.038 81.1518)" />
          <path
            d="M75.3488 457.416C75.3488 594.927 151.77 721.993 275.825 790.743 399.88 859.499 552.724 859.499 676.777 790.743 800.83 721.993 877.253 594.927 877.253 457.416 877.253 244.845 697.743 72.5212 476.301 72.5212 254.861 72.5212 75.3488 244.845 75.3488 457.416Z"
            fill="#3BA5A7" transform="matrix(1.00016 0 0 1 405.038 81.1518)" />
          <g>
            <path
              d="M623.86 463.183 718.8 405.103C718.805 405.1 718.81 405.096 718.815 405.092 721.056 403.704 723.628 402.943 726.265 402.89 728.902 402.839 731.504 403.498 733.8 404.798M623.86 463.183 358.476 211.192 287.411 211.192C287.41 211.192 287.41 211.192 287.41 211.192 283.545 211.191 279.832 212.702 277.066 215.402 274.299 218.102 272.699 221.777 272.606 225.642L272.606 225.644 261.992 676.07C261.992 676.07 261.992 676.07 261.992 676.07 261.944 678.045 262.291 680.006 263.012 681.836 263.733 683.675 264.813 685.345 266.19 686.759 267.566 688.173 269.211 689.296 271.027 690.063 272.843 690.83 274.795 691.226 276.766 691.231L276.776 691.231 726.556 691.231C730.486 691.231 734.252 689.672 737.029 686.894 739.802 684.117 741.36 680.351 741.36 676.426L741.36 417.703 741.36 417.699C741.36 415.068 740.658 412.484 739.325 410.215 737.996 407.952 736.091 406.083 733.8 404.798M623.86 463.183 623.86 417.684 623.86 417.679C623.86 415.049 623.153 412.468 621.825 410.2 620.491 407.931 618.581 406.059 616.284 404.775 613.993 403.49 611.397 402.839 608.764 402.89 606.137 402.942 603.57 403.692 601.325 405.065 601.325 405.065 601.325 405.065 601.325 405.066L506.359 463.181 506.359 417.704 506.359 417.676C506.345 415.062 505.638 412.5 504.314 410.246 502.996 407.992 501.099 406.127 498.825 404.84 496.551 403.553 493.977 402.889 491.364 402.915 488.75 402.942 486.191 403.657 483.943 404.989L483.912 405.008 382.211 466.285 373.282 225.44 373.282 225.435C373.136 221.607 371.513 217.984 368.752 215.327 365.991 212.672 362.31 211.19 358.48 211.192L623.86 463.183ZM733.8 404.798C733.795 404.796 733.79 404.792 733.785 404.789L731.339 409.165 733.815 404.806C733.81 404.804 733.805 404.801 733.8 404.798ZM353.45 492.565 359.811 661.621 291.937 661.621 301.863 240.803 344.209 240.803 353.504 491.593C353.47 491.823 353.447 492.086 353.447 492.377L353.443 492.377 353.45 492.565ZM353.772 490.541C353.79 490.488 353.798 490.467 353.788 490.494L353.772 490.541ZM383.457 500.138 476.747 443.91 476.747 550.834 476.747 661.621 389.455 661.621 383.457 500.138ZM506.359 661.621 506.359 497.908 594.251 444.118 594.251 661.621 506.359 661.621ZM711.751 661.621 623.86 661.621 623.86 497.908 711.751 444.118 711.751 661.621Z"
              stroke="#00ABF9" stroke-width="10.0269" fill="#3BA5A7"
              transform="matrix(1.00016 0 0 1 405.038 81.1518)" />
            <path
              d="M432.937 551.772C434.223 551.772 435.495 551.521 436.684 551.03 437.872 550.539 438.951 549.816 439.861 548.903 440.771 547.996 441.492 546.918 441.983 545.73 442.476 544.542 442.729 543.268 442.729 541.98L442.729 517.364C442.729 514.767 441.698 512.276 439.861 510.44 438.025 508.606 435.534 507.573 432.937 507.573 430.34 507.573 427.85 508.606 426.013 510.44 424.177 512.276 423.145 514.767 423.145 517.364L423.145 541.98C423.145 544.577 424.177 547.069 426.013 548.903 427.85 550.744 430.34 551.772 432.937 551.772ZM550.458 507.573C547.861 507.573 545.374 508.606 543.534 510.44 541.7 512.276 540.667 514.767 540.667 517.364L540.667 541.98C540.667 544.577 541.7 547.069 543.534 548.903 545.374 550.744 547.861 551.772 550.458 551.772 553.055 551.772 555.547 550.744 557.381 548.903 559.222 547.069 560.249 544.577 560.249 541.98L560.249 517.364C560.249 514.767 559.222 512.276 557.381 510.44 555.547 508.606 553.055 507.573 550.458 507.573ZM667.963 551.772C670.561 551.772 673.052 550.744 674.887 548.903 676.722 547.069 677.755 544.577 677.755 541.98L677.755 517.364C677.755 514.767 676.722 512.281 674.887 510.44 673.047 508.606 670.561 507.578 667.963 507.578 665.367 507.578 662.875 508.606 661.04 510.44 659.205 512.281 658.172 514.767 658.172 517.364L658.172 541.98C658.172 544.577 659.2 547.069 661.04 548.903 662.875 550.744 665.367 551.772 667.963 551.772Z"
              fill="#3BA5A7" transform="matrix(1.00016 0 0 1 405.038 81.1518)" />
          </g>
        </g>
      </g>
    </g>
    <path
      d="M127.247 494.401C127.247 275.513 305.235 98.0696 524.794 98.0696 744.353 98.0696 922.341 275.513 922.341 494.401 922.341 713.288 744.353 890.731 524.794 890.731 305.235 890.731 127.247 713.288 127.247 494.401Z"
      fill-rule="evenodd" transform="matrix(1.0004 0 0 1 356.388 39.8168)" /><text fill="#3BA5A7"
      font-family="Microsoft YaHei,Microsoft YaHei_MSFontService,sans-serif" font-weight="700" font-size="894"
      transform="matrix(0.81082 0 0 0.810493 670.74 837)">P</text>
  </g>
</svg>