<?xml version="1.0" standalone="no"?>
<!DOCTYPE svg PUBLIC "-//W3C//DTD SVG 1.1//EN" "http://www.w3.org/Graphics/SVG/1.1/DTD/svg11.dtd"><svg t="1687104268943"
    class="icon" viewBox="0 0 1024 1024" version="1.1" xmlns="http://www.w3.org/2000/svg" p-id="4979" width="21"
    height="21" xmlns:xlink="http://www.w3.org/1999/xlink">
    <path
        d="M163.84 102.4v423.253333l150.186667-40.96 232.106666 54.613334 211.626667 40.96 88.746667-34.133334 27.306666-150.186666-20.48-252.586667-279.893333-20.48L395.946667 61.44H211.626667z"
        fill="#d81e06" p-id="4980"></path>
    <path
        d="M921.6 546.133333V109.226667c0-34.133333-20.48-40.96-20.48-40.96-20.48-13.653333-47.786667 0-47.786667 0-54.613333 34.133333-150.186667 34.133333-150.186666 34.133333-88.746667 0-150.186667-47.786667-150.186667-47.786667C464.213333 0 354.986667 0 354.986667 0c-68.266667 0-157.013333 27.306667-157.013334 27.306667C191.146667 13.653333 170.666667 0 150.186667 0 122.88 0 102.4 20.48 102.4 47.786667v928.426666c0 27.306667 20.48 47.786667 47.786667 47.786667 27.306667 0 47.786667-20.48 47.786666-47.786667V587.093333c61.44-47.786667 157.013333-40.96 157.013334-40.96C443.733333 539.306667 512 587.093333 512 587.093333c116.053333 61.44 197.973333 54.613333 197.973333 54.613334 109.226667 0 191.146667-47.786667 191.146667-47.786667 20.48-13.653333 20.48-47.786667 20.48-47.786667z m-95.573333-34.133333c-20.48 34.133333-116.053333 27.306667-116.053334 27.306667-102.4 6.826667-157.013333-40.96-157.013333-40.96-81.92-47.786667-197.973333-47.786667-197.973333-47.786667-75.093333 0-150.186667 27.306667-157.013334 27.306667V136.533333c75.093333-47.786667 150.186667-40.96 150.186667-40.96 81.92-6.826667 157.013333 40.96 157.013333 40.96 88.746667 54.613333 197.973333 54.613333 197.973334 54.613334 88.746667 0 116.053333-20.48 116.053333-20.48l6.826667 341.333333z"
        fill="#d81e06" p-id="4981"></path>
</svg>