<svg t="1684923621944" class="icon" viewBox="0 0 1024 1024" version="1.1" xmlns="http://www.w3.org/2000/svg" p-id="3666"
    width="19" height="21">
    <path d="M0 512a512 512 0 1 0 1024 0A512 512 0 1 0 0 512z" fill="#FF4F5B" p-id="3667"></path>
    <path
        d="M292.372 493.363a36.454 36.454 0 0 0-36.536 36.537v225.28a36.577 36.577 0 0 0 73.196-0.492V529.9a36.332 36.332 0 0 0-36.66-36.537z"
        fill="#FFFFFF" p-id="3668"></path>
    <path
        d="M566.968 325.714H721.88a46.408 46.408 0 0 0 46.367-46.449 46.408 46.408 0 0 0-46.367-46.571H302.121a46.408 46.408 0 0 0-46.326 46.366 46.326 46.326 0 0 0 46.408 46.654h154.91v56.893a52.838 52.838 0 0 0 1.066 10.855 127.959 127.959 0 0 0-74.26 116.08v95.683h-54.887v93.102h59.801a128.082 128.082 0 0 0 246.457 0h59.596v-93.143h-54.681v-95.683a127.713 127.713 0 0 0-74.26-116.08 57.344 57.344 0 0 0 1.023-10.855z"
        fill="#FFFFFF" p-id="3669"></path>
    <path d="M695.091 698.286v56.975a36.577 36.577 0 0 0 73.196-0.327V529.9a36.577 36.577 0 0 0-73.196 0v75.284z"
        fill="#FFFFFF" p-id="3670"></path>
</svg>