<svg width="18" height="21" viewBox="0 0 18 21" fill="none" xmlns="http://www.w3.org/2000/svg">
  <g clip-path="url(#clip0_313_30003)">
    <path
      d="M13.9606 16.7267C13.9815 16.716 14.0024 16.7054 14.0128 16.6842L15.5617 15.3481C17.0686 13.7151 18 11.5307 18 9.1236C18 3.9065 13.678 -0.282041 8.46645 0.014868C3.75726 0.290569 0.031748 4.27764 0.000353257 9.04943C-0.0205765 11.4671 0.889868 13.6515 2.37589 15.2951L4.01888 16.7054C4.02935 16.716 4.03981 16.716 4.03981 16.7267L9.00015 21L13.9606 16.7267Z"
      fill="#8E51DA" />
    <path
      d="M1.42383 9.12376C1.42383 11.8666 2.86792 14.4011 5.21212 15.7724C7.55633 17.1438 10.4445 17.1438 12.7887 15.7724C15.1329 14.4011 16.5771 11.8666 16.5771 9.12376C16.5771 4.88375 13.1849 1.44653 9.0004 1.44653C4.81599 1.44653 1.42383 4.88375 1.42383 9.12376Z"
      fill="#232324" />
    <path
      d="M13.8113 5.47174H9.70008C9.39575 5.47174 9.14675 5.65116 9.14675 5.87543C9.14675 6.09971 9.39575 6.27912 9.70008 6.27912H12.9094C13.2138 6.27912 13.4628 6.35762 13.4628 6.45294V8.20788C13.4628 8.51625 13.3743 8.72931 13.2635 8.68446L13.164 8.61156C12.7034 8.2427 12.0531 8.2427 11.5925 8.61156C11.3063 8.85564 10.8882 8.85564 10.602 8.61156C10.1422 8.24063 9.49041 8.24063 9.03055 8.61156C8.74433 8.85564 8.32631 8.85564 8.04009 8.61156C7.58022 8.24063 6.92848 8.24063 6.46862 8.61156C6.33279 8.73298 6.15727 8.79892 5.97615 8.79659C5.79494 8.79946 5.61924 8.73345 5.48368 8.61156L5.34535 8.51064C5.07321 8.37833 4.90081 8.09882 4.90268 7.79297V5.47174H4.54855C4.35488 5.47174 4.19995 5.72405 4.19995 6.03242V12.7606C4.19995 13.0703 4.44769 13.3213 4.75328 13.3213H13.6066C13.9122 13.3213 14.16 13.0703 14.16 12.7606V6.03242C14.16 5.72405 13.9995 5.47174 13.8113 5.47174Z"
      fill="#8E51DA" />
    <path
      d="M6.85056 6.82869C7.02762 6.82869 7.17149 6.73898 7.17149 6.425C7.14099 6.20277 7.02578 6.00149 6.85056 5.86432C6.67533 6.00149 6.56012 6.20277 6.52962 6.425C6.52962 6.73337 6.67349 6.82869 6.85056 6.82869ZM7.68056 6.82869C7.85762 6.82869 8.00149 6.73898 8.00149 6.425C7.97099 6.20277 7.85578 6.00149 7.68056 5.86432C7.50533 6.00149 7.39013 6.20277 7.35962 6.425C7.35409 6.73337 7.48689 6.82869 7.68056 6.82869ZM6.01503 6.82869C6.19209 6.82869 6.33596 6.73898 6.33596 6.425C6.30546 6.20277 6.19025 6.00149 6.01503 5.86432C5.8398 6.00149 5.72459 6.20277 5.69409 6.425C5.69409 6.73337 5.82689 6.82869 6.01503 6.82869Z"
      fill="#8E51DA" />
  </g>
  <defs>
    <clipPath id="clip0_313_30003">
      <rect width="18" height="21" fill="white" />
    </clipPath>
  </defs>
</svg>