<svg xmlns="http://www.w3.org/2000/svg" xmlns:xlink="http://www.w3.org/1999/xlink" fill="none" version="1.1" width="24"
  height="28" viewBox="0 0 24 28">
  <g>
    <g>
      <g>
        <g>
          <path
            d="M18.6141,22.3022C18.642,22.288,18.6699,22.2739,18.6838,22.2456L20.7489,20.4642C22.7582,18.2868,24,15.3743,24,12.1648C24,5.20867,18.2373,-0.376055,11.2886,0.019824C5.00968,0.387426,0.0423307,5.70352,0.000471008,12.0659C-0.0274354,15.2895,1.18649,18.202,3.16785,20.3935L5.35851,22.2739C5.37246,22.288,5.38641,22.288,5.38641,22.3022L12.0002,28L18.6141,22.3022Z"
            fill="#6236FF" fill-opacity="1" />
        </g>
        <g>
          <path
            d="M1.8984375,12.1650109375C1.8984375,15.8221109375,3.8238875,19.2014109375,6.9494975,21.0299109375C10.0751075,22.8584109375,13.9260375,22.8584109375,17.0516375,21.0299109375C20.1772375,19.2014109375,22.1027375,15.8221109375,22.1027375,12.1650109375C22.1027375,6.5116609375,17.5798375,1.9287109375,12.0005375,1.9287109375C6.4213175,1.9287109375,1.8984375,6.5116609375,1.8984375,12.1650109375Z"
            fill="#FFFFFF" fill-opacity="1" />
        </g>
      </g>
    </g>
    <g>
      <g>
        <path
          d="M17.992800000000003,12.816970000000001C17.9527,12.52601,17.7447,12.23493,17.486,12.10651C17.4369,12.07387,17.3747,12.05819,17.3194,12.04444C17.287300000000002,12.036349999999999,17.2336,12.02285,17.2213,12.011800000000001C17.185299999999998,11.9735,17.1892,11.89677,17.192700000000002,11.829170000000001C17.1939,11.808869999999999,17.1948,11.78997,17.1948,11.77301L17.192700000000002,11.75309C17.1462,11.529589999999999,17.167,11.352360000000001,17.191000000000003,11.14686L17.1946,11.10959C17.1946,10.46622,16.954700000000003,9.45067,16.2944,9.28965C15.73075,9.15226,15.11395,9.206240000000001,14.51735,9.25855C14.21166,9.28541,13.92268,9.31073,13.646090000000001,9.31073C13.563749999999999,9.31073,13.4534,9.32268,13.32562,9.33669C13.088799999999999,9.36252,12.764,9.39786,12.63358,9.33759C12.522269999999999,9.28618,12.484639999999999,8.92955,12.45964,8.69332C12.448820000000001,8.58961,12.43824,8.491810000000001,12.42334,8.41495C12.40555,8.324349999999999,12.39461,8.22834,12.383189999999999,8.13195C12.3446,7.805131,12.30096,7.434622,11.99418,7.237974C11.51371,6.9302989,10.86938,6.9899316,10.30081,7.0426255C10.12687,7.0586904,9.96255,7.0739838,9.81034,7.0782242C9.575330000000001,7.0850357,9.34658,7.0989157,9.13142,7.192219C8.53013,7.453241,8.44021,8.33861,8.44021,8.84305L8.44057,8.99971C8.44093,9.08376,8.44129,9.16756,8.44069,9.25174C8.38492,9.28143,8.33166,9.32049,8.30702,9.33939C8.13584,9.39208,7.987376,9.44477,7.837971,9.49798C7.778467,9.50428,7.71632,9.54142,7.68747,9.56096C7.524826,9.62046,7.386468,9.71055,7.265781,9.841899999999999C7.219381,9.91618,7.175144,10.02581,7.159637,10.06539C6.934966,10.35019,6.9648995,10.82981,7.141005,11.11141C7.233685,11.235430000000001,7.309659,11.299299999999999,7.405826,11.38027L7.464609,11.43001L7.571233,11.48938C7.625567,11.544260000000001,7.679661,11.57472,7.728587,11.60107C7.775107,11.64026,7.834971,11.643609999999999,7.845311,11.64438L7.859616,11.65967L7.878969,11.66661C7.967323,11.69797,8.09835,11.69887,8.10713,11.69938C8.198,11.71905,8.37832,11.75812,8.52075,11.72136L8.52364,11.77225C8.52965,11.88496,8.5359,11.9978,8.54395,12.1109L8.62137,13.27167C8.64685,13.652339999999999,8.67294,14.475909999999999,8.67306,14.48104C8.67306,14.52101,8.66861,14.56599,8.6638,14.61354C8.65815,14.67228,8.6519,14.73705,8.6519,14.80311C8.62726,14.81198,8.60346,14.82174,8.580259999999999,14.833179999999999C8.54816,14.83832,8.50789,14.85117,8.48217,14.86081C8.42759,14.873660000000001,8.3729,14.885100000000001,8.3188,14.89654C8.14438,14.93304,7.964538,14.97057,7.798546,15.05719C7.688435,15.08778,7.626528,15.12337,7.550675,15.20087C7.526873,15.21321,7.496101,15.23968,7.457994,15.29688C7.413877,15.32965,7.38635,15.38003,7.371684,15.41383C6.9213754,15.72921,6.99793954,16.193939999999998,7.0721221,16.64363C7.0917161,16.76225,7.111912,16.88486,7.122249,16.9959C7.122249,17.1182,7.122249,17.372799999999998,7.183076,17.5343C7.210003,17.592100000000002,7.240416,17.6578,7.302683,17.7243L7.380097,17.8071C7.46304,17.8958,7.579884,17.9515,7.736884,17.9775C7.770544,17.9927,7.8005949999999995,18,7.828725,18C7.84339,18,7.856133,17.996299999999998,7.867192,17.9916C8.07263,18.003500000000003,8.29694,17.9712,8.478110000000001,17.9453C8.58389,17.9301,8.67561,17.917099999999998,8.73932,17.916800000000002C8.96471,17.901,9.18843,17.9131,9.425229999999999,17.9265C9.83009,17.948999999999998,10.276060000000001,17.9414,10.69778,17.927C11.083400000000001,17.913899999999998,11.48225,17.9003,11.88219,17.9167C12.31686,17.944200000000002,12.71753,17.842399999999998,13.14294,17.735300000000002L13.43,17.639200000000002C13.46294,17.634999999999998,13.50802,17.6205,13.54288,17.6083L13.57221,17.5896C13.57582,17.587600000000002,13.58688,17.5854,13.60731,17.584C13.762979999999999,17.5564,14.23672,17.471899999999998,14.273859999999999,16.91274C14.273859999999999,16.79296,14.24658,16.64799,14.22193,16.52576C14.22193,16.43786,14.19765,16.279780000000002,14.19621,16.277079999999998C14.19621,15.92777,14.126249999999999,15.63578,13.95904,15.28068C13.92442,15.16887,13.85361,15.10127,13.78546,15.05089C13.74939,14.99691,13.6852,14.95411,13.64914,14.93317C13.56127,14.81981,13.41978,14.74784,13.28275,14.74784L13.11109,14.74784C12.9749,14.71597,12.84074,14.69399,12.713930000000001,14.675740000000001C12.69482,14.583210000000001,12.65202,14.22349,12.60622,12.829049999999999L12.604659999999999,12.78202C12.602260000000001,12.7166,12.59589,12.64527,12.58915,12.57112C12.568,12.33863,12.54383,12.07517,12.654309999999999,11.90912C12.76466,11.74294,12.99823,11.75927,13.22399,11.77482C13.32015,11.781500000000001,13.41115,11.78767,13.48941,11.781500000000001C13.757349999999999,11.781500000000001,14.00656,11.76107,14.26681,11.737680000000001C14.26813,11.74577,14.26969,11.75387,14.27113,11.76197C14.27642,11.79127,14.28219,11.82031,14.28388,11.87326C14.3001,11.9604,14.31681,12.13274,14.32631,12.23968C14.02038,12.28273,13.71349,12.529620000000001,13.71349,12.85015C13.71349,13.02468,13.770710000000001,13.170169999999999,13.88358,13.283000000000001C14.2376,13.63615,15.06968,13.574480000000001,15.62013,13.53361C15.75837,13.52333,15.87762,13.51446,15.96116,13.51446L16.96718,13.51446C17.0151,13.51446,17.0701,13.51831,17.1281,13.52243C17.348399999999998,13.53772,17.6218,13.55687,17.791800000000002,13.39763C17.9525,13.247779999999999,18.023899999999998,13.04138,17.9929,12.817L17.992800000000003,12.816970000000001Z"
          fill="#6236FF" fill-opacity="1" />
      </g>
      <g>
        <path
          d="M17.15980048309326,15.542143070220947C16.963980483093263,15.135653070220947,16.75014048309326,14.732356070220947,16.52427048309326,14.343436070220948C16.42329048309326,14.169680570220947,16.307170483093262,14.090126470220948,16.180097483093263,14.107474480220947C15.941362483093261,14.139218570220947,15.707909483093262,14.534165070220947,15.485662483093261,15.281243070220947C15.469073483093261,15.336763070220947,15.450682483093262,15.395623070220948,15.431329483093261,15.457183070220948C15.282148883093262,15.932703070220947,15.077557483093262,16.583773070220946,15.341895483093262,17.04119307022095C15.507543483093261,17.327663070220947,15.905542483093262,17.51980307022095,16.35573048309326,17.53059307022095C16.369190483093263,17.530983070220948,16.38265048309326,17.530983070220948,16.39588048309326,17.530983070220948C16.79821048309326,17.530983070220948,17.130350483093263,17.384723070220947,17.289260483093262,17.13541307022095C17.60337048309326,16.642423070220946,17.44217048309326,16.145033070220947,17.26630048309326,15.766803070220947C17.231080483093262,15.691623070220947,17.19574048309326,15.616563070220947,17.15980048309326,15.542153070220948L17.15980048309326,15.542143070220947Z"
          fill="#6236FF" fill-opacity="1" />
      </g>
    </g>
  </g>
</svg>