<svg width="18" height="21" viewBox="0 0 18 21" fill="none" xmlns="http://www.w3.org/2000/svg">
    <g clip-path="url(#clip0_2434_59671)">
        <path
            d="M8.99609 0.257324C4.17559 0.257324 0.253906 4.179 0.253906 8.99951C0.253906 13.8196 4.17559 17.7417 8.99609 17.7417C13.8162 17.7417 17.7383 13.8198 17.7383 8.99951C17.7381 4.179 13.8162 0.257324 8.99609 0.257324ZM1.2252 8.99932C1.2252 7.05068 1.95156 5.27217 3.14062 3.90654L5.74199 6.50791C4.99531 7.65557 4.38203 8.95518 4.38203 10.1442C4.38203 12.7804 6.45176 14.9245 8.9959 14.9245C10.3926 14.9245 11.6437 14.2757 12.4906 13.2565L14.0887 14.8546C12.7232 16.0438 10.9445 16.77 8.9959 16.77C4.71133 16.7702 1.2252 13.2841 1.2252 8.99932ZM8.81113 10.7997C8.8541 10.8265 8.89609 10.8546 8.93711 10.8837L8.93789 10.8841C8.94668 10.8896 8.95488 10.8958 8.96367 10.9013L8.96484 10.9017C9.46289 11.2081 10.033 11.3718 10.6174 11.3829L11.8033 12.5688C11.1348 13.4138 10.1246 13.9532 8.99629 13.9532C7.47109 13.9532 6.16387 12.9669 5.62207 11.5729C5.63789 11.5546 5.65508 11.538 5.66836 11.5167C6.08262 10.8532 6.80625 10.4571 7.60352 10.4571C8.02949 10.4573 8.44727 10.5759 8.81113 10.7997ZM11.7975 11.1897C12.0777 11.0892 12.3426 10.954 12.5832 10.7817C12.5307 11.1058 12.44 11.4157 12.3143 11.7067L11.7975 11.1897ZM11.0008 10.3929L7.00215 6.39424C7.6748 5.46846 8.42363 4.63779 8.98203 4.09014C9.33203 4.43662 10.4189 5.55264 11.3391 6.92236C11.9723 7.86416 12.382 8.72197 12.5506 9.44678C12.1887 9.96709 11.6314 10.3069 11.0008 10.3929ZM9.08145 9.84736C8.62305 9.61475 8.11914 9.48604 7.60313 9.48604C6.75137 9.48604 5.95781 9.80576 5.36406 10.3665C5.35996 10.2925 5.35332 10.2192 5.35332 10.1442C5.35332 9.26064 5.81797 8.21436 6.44688 7.21299L9.08145 9.84736ZM14.7793 14.1714L13.0437 12.4358C13.4043 11.755 13.61 10.9743 13.61 10.1444C13.61 9.09326 13.1172 7.82686 12.1453 6.38096C11.0891 4.80889 9.82598 3.55479 9.5832 3.31943C9.24766 2.99307 8.7207 2.99209 8.3834 3.31728C8.18398 3.50947 7.23105 4.45146 6.30527 5.69736L3.82402 3.21611C5.19941 1.98467 7.00898 1.22861 8.99609 1.22861C13.2809 1.22861 16.7668 4.71455 16.7668 8.99932C16.7668 10.9864 16.0107 12.796 14.7793 14.1714Z"
            fill="#FF7D00" />
        <path fill-rule="evenodd" clip-rule="evenodd"
            d="M13.9608 16.7265L13.9605 16.7267L9.00014 21L4.03981 16.7267C4.03981 16.7201 4.0358 16.7175 4.03026 16.7141C4.02685 16.7119 4.02287 16.7095 4.01888 16.7054L2.37588 15.2951C0.88987 13.6515 -0.0205766 11.4671 0.000353257 9.04943C0.031748 4.27764 3.75726 0.290569 8.46648 0.014868C13.678 -0.282041 18 3.9065 18 9.1236C18 11.5307 17.0686 13.7151 15.5616 15.3481L14.0129 16.6842C14.0025 16.7053 13.9817 16.7159 13.9608 16.7265ZM5.10094 15.9641C2.68761 14.5523 1.20094 11.9431 1.20094 9.1194C1.20094 4.75438 4.69312 1.21582 9.00091 1.21582C13.3087 1.21582 16.801 4.75438 16.801 9.1194C16.801 11.9431 15.3142 14.5523 12.9009 15.9641C10.4876 17.376 7.51426 17.376 5.10094 15.9641Z"
            fill="#FF7D00" />
    </g>
    <defs>
        <clipPath id="clip0_2434_59671">
            <rect width="18" height="21" fill="white" />
        </clipPath>
    </defs>
</svg>